<?xml version="1.0" standalone="no"?>
<!DOCTYPE svg PUBLIC "-//W3C//DTD SVG 20010904//EN"
 "http://www.w3.org/TR/2001/REC-SVG-20010904/DTD/svg10.dtd">
<svg version="1.0" xmlns="http://www.w3.org/2000/svg"
 width="384.000000pt" height="178.000000pt" viewBox="0 0 384.000000 178.000000"
 preserveAspectRatio="xMidYMid meet">

<g transform="translate(0.000000,178.000000) scale(0.100000,-0.100000)"
fill="#000000" stroke="none">
<path d="M2645 1295 c-93 -163 -171 -300 -173 -305 -4 -12 694 -14 701 -2 7
10 -336 602 -348 602 -5 0 -86 -133 -180 -295z m343 -20 c83 -143 149 -261
148 -262 -5 -6 -618 -8 -621 -3 -3 5 69 132 282 498 14 24 29 40 33 35 5 -4
76 -125 158 -268z"/>
<path d="M2803 1468 c-6 -13 -63 -113 -127 -222 -64 -110 -116 -203 -116 -208
0 -10 517 -11 524 0 3 4 -43 91 -101 193 -163 284 -160 280 -180 237z m141
-218 l106 -185 -221 -3 c-122 -1 -224 -1 -226 1 -2 2 47 90 108 196 62 105
115 188 119 184 4 -4 55 -91 114 -193z"/>
<path d="M2765 1294 c-32 -55 -71 -121 -87 -147 -16 -26 -26 -52 -23 -58 7
-11 332 -12 339 -1 5 8 -141 273 -162 294 -7 7 -28 -21 -67 -88z m139 -79 l56
-100 -131 -3 c-73 -1 -134 -1 -136 1 -4 4 100 189 120 215 14 18 23 7 91 -113z"/>
<path d="M2780 1220 c-23 -39 -38 -75 -35 -81 8 -12 153 -10 161 2 5 8 -72
149 -81 149 -2 0 -23 -32 -45 -70z"/>
<path d="M506 1530 c-122 -39 -217 -304 -156 -438 39 -86 160 -97 259 -24 l34
25 -6 -32 -7 -32 48 3 47 3 27 125 c20 96 31 129 48 142 29 24 35 23 48 -7 13
-29 34 -32 56 -9 20 19 20 34 0 62 -19 27 -39 28 -81 2 -33 -20 -33 -20 -33 0
0 17 -7 20 -44 20 l-44 0 -23 -110 c-20 -99 -26 -114 -55 -139 -59 -52 -148
-49 -173 5 -35 77 19 306 87 367 24 22 70 19 86 -5 7 -13 6 -26 -6 -52 -15
-30 -15 -35 -2 -40 23 -9 31 -7 48 10 23 22 20 69 -7 100 -18 21 -34 27 -73
30 -27 2 -62 -1 -78 -6z"/>
<path d="M1410 1533 c-54 -20 -72 -61 -115 -273 -29 -139 -44 -170 -80 -170
-22 0 -25 5 -25 33 0 18 9 73 20 123 28 126 28 124 -25 124 -25 0 -45 -4 -45
-10 0 -5 -13 -2 -29 7 -26 16 -31 16 -75 -1 -78 -30 -126 -116 -126 -228 0
-49 4 -63 25 -83 35 -36 85 -34 130 6 23 20 35 26 35 17 0 -41 76 -63 116 -33
22 17 34 19 34 5 0 -5 -21 -20 -47 -32 -58 -28 -82 -64 -67 -105 5 -15 23 -34
39 -42 41 -20 102 2 128 46 10 18 37 121 60 230 42 196 43 198 70 201 34 4 36
22 2 22 -23 0 -25 3 -19 28 13 55 29 77 57 80 22 3 27 -1 27 -17 0 -12 4 -21
9 -21 12 0 -6 -64 -19 -68 -5 -2 -7 -14 -4 -26 3 -12 -4 -64 -15 -116 -26
-118 -26 -151 -1 -178 34 -36 123 -21 148 24 7 13 13 11 40 -15 24 -25 39 -31
72 -31 45 0 104 26 134 59 l18 20 22 -32 c37 -55 103 -61 150 -14 l23 23 26
-29 c23 -25 32 -29 59 -23 43 8 77 34 99 76 25 45 14 52 -17 12 -27 -34 -61
-42 -70 -17 -5 11 52 315 72 385 3 13 -4 15 -43 10 l-48 -5 -13 -60 c-19 -90
-18 -88 -46 -70 -34 22 -92 6 -134 -38 -32 -33 -72 -127 -72 -170 0 -29 -71
-77 -116 -77 -27 0 -34 5 -43 30 -13 39 -5 59 28 66 75 18 125 76 119 142 -6
76 -101 80 -174 8 -41 -41 -74 -117 -74 -173 0 -25 -32 -63 -52 -63 -39 1 -41
14 -18 121 29 140 29 139 51 139 10 0 19 5 19 10 0 6 -7 10 -15 10 -17 0 -19
21 -6 68 l10 32 -45 0 c-24 0 -44 5 -44 10 0 6 -11 22 -25 35 -23 24 -60 31
-95 18z m-291 -207 c19 -22 -21 -195 -50 -218 -11 -10 -27 -18 -35 -18 -17 0
-34 31 -34 63 0 42 30 125 56 157 28 33 45 37 63 16z m712 2 c5 -48 -17 -93
-56 -114 -19 -10 -37 -16 -40 -13 -9 9 25 95 46 118 22 23 48 28 50 9z m276
-5 c6 -15 -6 -92 -28 -175 -11 -41 -39 -63 -69 -53 -46 14 -8 202 47 234 26
15 43 13 50 -6z m-867 -323 c0 -6 -7 -27 -15 -46 -11 -28 -19 -35 -37 -32 -32
4 -34 33 -4 63 25 25 56 33 56 15z"/>
<path d="M1459 713 c-42 -6 -131 -65 -156 -102 -27 -39 -30 -93 -7 -115 29
-29 44 -20 44 28 0 25 4 56 9 69 11 28 60 77 77 77 17 0 24 -76 24 -276 l0
-184 48 0 49 0 92 248 c50 136 91 250 91 255 0 4 -8 7 -18 7 -14 0 -32 -41
-87 -205 -39 -113 -73 -205 -77 -205 -5 0 -8 92 -8 205 l0 205 -27 -1 c-16 -1
-40 -4 -54 -6z"/>
<path d="M1776 677 c-36 -27 -14 -97 31 -97 7 0 22 9 34 21 22 22 19 55 -9 77
-20 15 -34 15 -56 -1z"/>
<path d="M2216 674 c-30 -30 -10 -94 30 -94 19 0 54 36 54 55 0 19 -35 55 -54
55 -8 0 -22 -7 -30 -16z"/>
<path d="M2016 561 c-39 -6 -39 -7 -76 -99 -21 -51 -47 -103 -58 -115 -11 -12
-23 -32 -27 -44 -7 -26 -51 -41 -67 -25 -10 10 4 100 39 250 5 20 2 22 -41 22
-25 0 -46 -3 -46 -6 0 -3 -11 -55 -25 -116 -14 -61 -25 -126 -25 -144 0 -68
70 -95 138 -54 l33 20 29 -21 c43 -32 110 -23 176 24 28 20 54 37 57 37 3 0 8
-14 12 -30 12 -55 77 -67 139 -25 l38 25 30 -25 c82 -69 203 4 226 137 7 37
11 43 40 49 17 4 32 6 32 5 0 -1 -9 -42 -20 -92 -28 -126 -28 -124 24 -124
l43 0 23 112 c26 134 41 168 74 168 32 0 37 -27 20 -98 -19 -83 -18 -145 4
-165 26 -24 84 -21 117 4 16 13 30 18 33 12 13 -19 51 -33 90 -33 30 0 55 10
99 39 56 38 104 81 89 81 -4 0 -18 -7 -32 -16 -13 -9 -26 -15 -29 -13 -2 2 -7
64 -11 136 l-7 133 -41 -6 c-53 -9 -60 -15 -76 -66 -16 -55 -56 -135 -81 -161
-10 -12 -19 -29 -19 -39 0 -23 -27 -35 -49 -21 -19 13 -19 25 3 125 18 87 11
121 -28 139 -24 11 -37 9 -99 -16 -13 -6 -16 -3 -11 9 6 15 0 17 -42 14 -48
-3 -48 -3 -59 -47 -10 -41 -27 -58 -61 -60 -7 -1 -15 15 -18 35 -4 19 -16 44
-27 55 -27 27 -96 26 -140 -3 -40 -27 -88 -117 -96 -180 -3 -23 -12 -51 -21
-60 -18 -21 -60 -24 -67 -5 -3 7 6 64 20 126 14 63 25 120 25 128 0 9 -14 13
-44 13 l-44 0 -10 -47 c-6 -27 -16 -76 -23 -111 -8 -43 -18 -67 -33 -77 -32
-23 -36 -19 -36 38 0 80 -12 217 -19 216 -3 -1 -24 -5 -45 -8z m508 -67 c3 -8
1 -23 -6 -33 -6 -11 -8 -26 -3 -37 26 -60 -43 -176 -92 -157 -23 9 -16 122 11
179 32 69 74 91 90 48z m-535 -156 c1 -57 -18 -80 -63 -76 -37 4 -48 33 -15
41 17 5 21 11 16 32 -3 17 6 51 22 88 l26 61 7 -49 c3 -28 7 -71 7 -97z m1085
51 c9 -95 -5 -129 -52 -129 -46 0 -71 36 -29 42 18 2 22 9 22 38 1 35 34 130
46 130 4 0 10 -36 13 -81z"/>
</g>
</svg>
